<svg xmlns="http://www.w3.org/2000/svg" viewBox="0 0 266.95 232.39"><defs><style>.cls-1{fill:#fff;}.cls-2{fill:none;stroke:#fff;stroke-miterlimit:10;stroke-width:4px;}</style></defs><g id="Calque_2" data-name="Calque 2"><g id="Calque_1-2" data-name="Calque 1"><path class="cls-1" d="M129.9,106.39c-6.42-5.39-8.28-10.18-8.05-15.84.15-3.92.58-46.5.61-50.44,0-1.59.68-5.17,2.26-5.12,1.89.06,1.89,4.19,1.76,5.55s-.54,41.1-.52,42.33c0,2,1,3.38,3,3.6a3.12,3.12,0,0,0,3.76-3c.17-1.33.56-41.34.5-42.69s.35-5.34,2.07-5.22,2.11,3.9,2,5.42c-.12,1.34-.53,41.35-.42,42.7A3.34,3.34,0,0,0,140.2,87a3,3,0,0,0,3.42-3c.14-1.33.45-41.35.37-42.7s.17-5.39,2-5.26c1.61.11,2.18,3.77,2.08,5.36-.08,1.34-.37,41.35-.28,42.7.13,2,1.19,3.34,3.23,3.45s3.38-1.16,3.56-3.28c.11-1.22.37-41.1.28-42.33-.09-1.44.17-5.42,2-5.34s2.06,3.89,2,5.4c-.07,4.92-.19,48.51-.5,53.4a13.49,13.49,0,0,1-5.92,10.4c-4.53,3.22-6.17,7.42-5.94,13.16,1.32,33.63,2.34,67.26,3.5,100.89.11,3.31-.3,6.36-2.52,8.89a10.67,10.67,0,0,1-12,2.84,11.5,11.5,0,0,1-7.37-11.14c.42-10.44,1-20.86,1.57-31.29,1.24-23.77,2.38-47.54,3.8-71.29C133.76,112.46,132.24,108.2,129.9,106.39Zm20.58-4a12.2,12.2,0,0,0,4.06-9c0-1.17.18-2.07-1.69-1.88-4.24.42-8.46-2.88-12.84-.49-1,.54-2.63-.39-3.75-1.28a2.1,2.1,0,0,0-2.92-.16,6.33,6.33,0,0,1-5.64.7c-1.63-.52-1.86.18-1.88,1.55a12.89,12.89,0,0,0,5,10.39c4.83,4.09,7.08,9.08,6.54,15.45-.89,10.61-1.45,21.27-2,31.93-.94,18.73-1.75,37.48-2.62,56.23-.24,5-.54,10.05-.71,15.08a6.84,6.84,0,0,0,4,6.66,6.68,6.68,0,0,0,7.31-.51c2.53-1.81,2.71-4.62,2.61-7.56-.65-18.58-1.23-37.16-1.84-55.74-.46-14-.62-28.05-1.49-42.07C142.13,113.45,143.2,106.46,150.48,102.42Z"/><path class="cls-1" d="M209.49,147.31a84.92,84.92,0,0,0,17.4-1.63c12.05-2.21,23.92-5,34.85-10.85a3.3,3.3,0,0,1,3.61.12c1.31.89.43,2.06.09,3-3.27,8.93-9.74,14.93-18,19-14.1,7-29,7.32-44.21,5a4.15,4.15,0,0,0-2.61-.05,42.38,42.38,0,0,0,10.57,5c11.61,3.82,23.49,4.38,35.53,2.8,1.61-.21,3.75-1,4.47.93.61,1.58-1.51,2.33-2.57,3.23-15.68,13.19-34.48,14.49-53.62,3.73-13.08-7.35-23.25-17.79-31.61-30.08-5.24-7.7-9.79-15.79-12.51-24.77-.25-.86-1-1.92-.19-2.66a2.59,2.59,0,0,1,2.95.06c11.6,6.57,23.14,3.88,34.4-.64,17.66-7.09,32.27-18.25,42.88-34.22,4.64-7,7.63-14.63,7-23.28-.09-1.26-.35-2.51-.55-3.76-.15-.9-.74-1.91.42-2.54a2.62,2.62,0,0,1,3.29.44,35.9,35.9,0,0,1,8.71,11.49c5.65,12.74,2.44,24.24-5.25,34.9s-17.93,17.85-29.24,23.89c-3,1.6-6.11,3-9.23,4.55.23.35.6.25.92.18,16.94-4,32.54-10.68,45.45-22.73A39.52,39.52,0,0,0,260.55,98c.54-1,1.05-2,2.47-1.75a2.8,2.8,0,0,1,2.58,2.39c2.07,8.72-.07,16.54-5.31,23.57-7.12,9.57-17,15.28-27.91,19.51a83.27,83.27,0,0,1-20.55,4.92C211.1,146.69,210.24,146.47,209.49,147.31Zm34.06,25.78a104.78,104.78,0,0,1-15.31-.14c-11.86-1.24-23.11-4.21-32.85-11.46-1.07-.81-3.21-1.59-2.63-2.92.75-1.7,2.7-.4,4.06-.1,13.21,2.91,26.41,3.74,39.53-.32,9.61-3,17.75-8,23-17,.29-.49.91-1,.29-1.67-14.23,5.48-28.86,9.19-44.12,10.1-7.49.45-14.93.13-22.07-2.53-1.12-.42-3.16-.68-2.89-1.94.37-1.73,2.3-.73,3.51-.65,18.83,1.28,36.29-2.7,51.87-13.65,6.47-4.54,11.69-10.24,14.58-17.77a21.69,21.69,0,0,0,1.55-9.45,66,66,0,0,1-9.66,9.9c-11.89,9.63-25.56,15.54-40.25,19.29A113.89,113.89,0,0,1,192.2,136c-1.19.08-2.76,0-3-1.27s1.4-1.21,2.27-1.51c12.23-4.21,23.81-9.69,34.24-17.43,7.53-5.58,14.13-12,18.56-20.44,3.6-6.79,5.28-13.94,3.45-21.6a24.84,24.84,0,0,0-5.46-10.91,41,41,0,0,1-7,23.67c-10.85,16.79-25.84,28.63-44.2,36.26-8.9,3.7-18.15,5.77-27.88,4.19-2.16-.35-4.27-1-6.42-1.54a2.57,2.57,0,0,0-.07.63,7.83,7.83,0,0,0,.34,1.14c8.38,20.63,21.69,37.2,40.91,48.64,9.65,5.75,20.08,8.22,31.3,5.08A37.09,37.09,0,0,0,243.55,173.09Z"/><path class="cls-1" d="M75.78,167.22A83.19,83.19,0,0,1,54.73,169c-11.66-.61-22.86-2.93-32.63-9.79-7.17-5-11.66-11.78-12.42-20.72a2.78,2.78,0,0,1,1.69-3.07c1.29-.63,2.07.08,2.9.88a39.44,39.44,0,0,0,11,7.42c16,7.4,32.95,8.85,50.29,7.33.32,0,.7-.05.81-.45-3.44-.48-6.83-.86-10.19-1.44-12.63-2.18-24.74-5.89-35.26-13.51S13.63,118,15,104.16a35.87,35.87,0,0,1,4.67-13.65,2.63,2.63,0,0,1,3-1.44c1.31.23,1.06,1.37,1.2,2.28.2,1.25.34,2.52.65,3.74,2.13,8.4,7.37,14.71,14,19.9,15.07,11.84,32.45,17.86,51.43,19,12.12.77,23.91-.29,32.87-10.17a2.59,2.59,0,0,1,2.78-1c1,.44.63,1.69.65,2.58.24,9.39-1.54,18.49-4.1,27.45-4.09,14.29-10.48,27.39-20.59,38.47-14.8,16.22-33.06,20.88-52.08,13.27-1.3-.52-3.55-.57-3.47-2.27.1-2,2.36-2,4-2.28,11.93-2.27,23-6.53,32.87-13.79a42.7,42.7,0,0,0,8.45-8.09,4.12,4.12,0,0,0-2.46.86c-13.69,7-27.95,11.37-43.54,9.15-9.17-1.3-17.19-5-23.09-12.43-.63-.79-1.83-1.63-.87-2.89a3.28,3.28,0,0,1,3.39-1.23c12.21,2.08,24.37,1.05,36.5-.63a86,86,0,0,0,17-3.9C77.25,166.59,76.51,167.07,75.78,167.22Zm-5.72,38.05c11.64-.53,20.77-6.15,28.14-14.63,14.66-16.89,22.1-36.8,23.59-59a7.75,7.75,0,0,0,0-1.18,3,3,0,0,0-.26-.58c-1.88,1.18-3.68,2.47-5.62,3.48-8.74,4.54-18.17,5.48-27.79,4.76-19.83-1.49-37.77-8-53.34-20.58a41,41,0,0,1-14.1-20.27,24.88,24.88,0,0,0-1.77,12.07c.67,7.84,4.51,14.11,10.05,19.43,6.84,6.58,15.14,10.65,24,13.59,12.32,4.08,25,5.66,38,5.82.93,0,2.45-.62,2.63.72s-1.3,1.86-2.46,2.15a114.19,114.19,0,0,1-20,3.18c-15.13,1-30-.29-44.27-5.7a65.53,65.53,0,0,1-12.27-6.38,21.57,21.57,0,0,0,4.43,8.49c5.1,6.24,11.85,10,19.42,12.31,18.22,5.51,36.05,3.82,53.54-3.3,1.12-.46,2.63-2,3.52-.49.65,1.12-1.19,2-2.13,2.76-6,4.76-12.91,7.39-20.16,9.31-14.78,3.92-29.83,5-45.06,4.24-.37.86.37,1.12.79,1.5,7.77,6.86,17.1,9.11,27.15,8.92,13.73-.26,26-5.18,37.63-12.09,1.2-.71,2.65-2.56,3.89-1.18,1,1.08-.82,2.5-1.59,3.6-7,9.94-16.72,16.29-27.59,21.17A104.69,104.69,0,0,1,54,202.31,36.91,36.91,0,0,0,70.06,205.27Z"/><ellipse class="cls-2" cx="140.62" cy="10.75" rx="26.75" ry="8.75"/><path class="cls-1" d="M182.1,180.62a45.17,45.17,0,0,0,36.21,17.71c1.93,0,1.93-3,0-3a42,42,0,0,1-33.62-16.22c-1.15-1.51-3.76,0-2.59,1.51Z"/><path class="cls-1" d="M192.37,201l4.25.86a1.57,1.57,0,0,0,1.16-.16,1.5,1.5,0,0,0,.69-.89,1.53,1.53,0,0,0-1.05-1.85l-4.25-.85a1.61,1.61,0,0,0-1.16.15,1.5,1.5,0,0,0,.36,2.74Z"/><path class="cls-1" d="M266.91,79.86a59.69,59.69,0,0,0-13.1-26.58c-1.25-1.48-3.36.66-2.12,2.12A56.67,56.67,0,0,1,264,80.65c.39,1.89,3.29,1.09,2.89-.79Z"/><path class="cls-1" d="M0,150.06a56.43,56.43,0,0,0,18.2,37.69c1.43,1.3,3.56-.82,2.13-2.12A53.33,53.33,0,0,1,3,150.06c-.13-1.91-3.13-1.93-3,0Z"/><path class="cls-1" d="M34.32,92.07a45.66,45.66,0,0,0,8.59,10.6A1.5,1.5,0,0,0,45,100.55a42.92,42.92,0,0,1-8.12-10,1.5,1.5,0,0,0-2.59,1.52Z"/></g></g></svg>