<svg xmlns="http://www.w3.org/2000/svg" viewBox="0 0 226.05 270"><g id="Calque_2" data-name="Calque 2"><g id="Calque_1-2" data-name="Calque 1"><path d="M226,135.27q0,60.36,0,120.7c0,11-3.06,14-14.11,14H30.62c-11.18,0-13.95-2.53-14.47-13.74-.13-2.67-.94-3.5-3.6-3.82-8.22-1-12.79-5.85-12.54-12.77.25-6.77,4.76-11.13,12.87-11.88,2.59-.23,3.36-1.17,3.21-3.52a25,25,0,0,1,0-4.74c.73-5.6.12-9.35-7.18-9.85-5.65-.39-9.35-6.8-8.89-12.55.47-6,5.08-11.22,11.22-11.27,4.67,0,5.16-2.11,4.84-5.68a23.79,23.79,0,0,1,0-4.22c.44-4.55.29-7.7-6.05-8S-.4,161.32,0,155.18A12.13,12.13,0,0,1,11.7,143.71c3.91-.19,4.81-1.64,4.41-5a27.79,27.79,0,0,1,0-4.74c.25-4.34.68-7.88-6-8C4.06,125.83-.1,119.69,0,113.75a12,12,0,0,1,11.09-12c4.78-.28,5.5-2.32,5-6.17a13.91,13.91,0,0,1,0-3.16c.49-4.82.54-8.46-6.42-8.61C4,83.71,0,77.53,0,71.8S4.08,60.34,10,60.05c6.15-.3,6.71-3.3,6.13-8a20.42,20.42,0,0,1,0-4.21c.33-3.58-.13-5.71-4.83-5.76C4.9,42,.22,36.53,0,30.31A11.9,11.9,0,0,1,11,17.78c4-.34,5.24-1.58,5.2-5.65C16.12,3.48,20.05,0,29.06,0H213c9.6,0,13,3.38,13,13Q226.08,74.14,226,135.27Zm-201.82-.54c0,40.25.09,80.49-.11,120.73,0,5.07,1.38,6.55,6.48,6.54q90.42-.24,180.83,0c5.3,0,6.86-1.41,6.84-6.8Q218,135,218.26,14.8c0-5.37-1.51-6.82-6.83-6.8Q121,8.25,30.6,8c-5.08,0-6.51,1.45-6.49,6.53C24.31,54.6,24.22,94.66,24.22,134.73Zm-8-105.12c-.61-1.43,1-4.35-2.66-4.2-2.94.13-5.2,1.16-5.24,4.48s2.38,4.33,5.23,4.43C17.06,34.45,15.75,31.65,16.17,29.61Zm-.06,210.67c-.26-2.06.87-5-3-4.59-2.69.26-4.83,1.24-4.82,4.33,0,3.3,2.2,4.41,5.15,4.57C17,244.78,15.79,242.06,16.11,240.28Zm0-168.61c-.13-2,.68-4.49-2.89-4.17-2.81.24-4.82,1.28-4.9,4.34S10.21,76,13,76.26C16.93,76.59,15.89,73.75,16.08,71.67Zm0,42.28c-.31-1.79.93-4.49-2.71-4.35-3.06.12-5.2,1.24-5.1,4.6.1,3.11,2.24,4,5,4.13C16.91,118.5,15.85,115.87,16.1,114Zm0,42.26c-.15-2.1.8-4.86-3.09-4.53-2.85.24-4.77,1.37-4.7,4.44s2.07,4.08,4.89,4.28C16.73,160.67,16,158.2,16.08,156.21Zm0,41.94c-.3-1.87.85-4.58-2.74-4.44-2.72.11-5,1-5.09,4.1-.1,3.33,2,4.52,5.08,4.68C17,202.69,15.79,200,16.11,198.15Z"/><path d="M121.37,132.68H60.22c-3.62,0-7.59-.09-8.61-4.33-1.17-4.89-2.09-10.09,1.43-14.61a3.75,3.75,0,0,1,2.66-1.51c5.77.74,5.54-3.41,6.26-7.11C66.68,80.85,81.07,65,104.46,57.51c3.69-1.18,4.76-2.59,4.18-6.16-.75-4.62-.12-8.87,4.76-11.14,4.66-2.16,15.33-1,18.12,1.84,3,3,2.71,6.75,2.07,10.41-.5,2.84.34,3.83,3.17,4.71,25,7.76,39.85,24.53,43.94,50.51.44,2.77,1,4.33,4.35,4.32,3.87,0,6,2.56,6.15,6.49.05,1.23.06,2.46.07,3.69,0,8.92-1.52,10.49-10.34,10.5Zm-.5-8.16H162c6,0,11.94,0,17.91,0,1.45,0,3.33.52,3.45-2,.14-2.83-1.88-2.42-3.58-2.49-1.22,0-2.45,0-3.68,0q-38.73,0-77.45,0a24.54,24.54,0,0,1-5.22-.43,3.42,3.42,0,0,1-2.75-3.42,3.58,3.58,0,0,1,2.8-3.94,17.92,17.92,0,0,1,4.7-.33c23.36,0,46.72-.15,70.07.09,4.69,0,5.11-1.58,4.36-5.5C167.82,81.37,147,63.5,122.07,63.17,96.6,62.83,75.29,80,70,105.12c-.92,4.34-1.24,7.66,5,6.78,2.57-.37,4.64,1.06,4.73,3.78.11,3.09-2.18,4.19-4.92,4.25-3.51.09-7-.16-10.53.13-1.85.15-5.19-1.68-5.09,2.36.09,3.62,3.18,2,4.85,2C82.94,124.56,101.9,124.52,120.87,124.52Zm-.38-77.17c-1,.93-4.39-1.47-3.95,2.63.29,2.76.09,5.39,4.5,5.14,3.42-.19,4.43-1.09,4.66-4.43C126,46.22,123,47.75,120.49,47.35Z"/><path d="M121,161.43h62.22a28.05,28.05,0,0,1,4.21.12c2.11.32,3.58,1.47,3.66,3.8s-1.27,3.6-3.38,4a21.75,21.75,0,0,1-4.2.22H56.93c-2.83,0-5.66-.53-5.73-4-.07-3.83,2.95-4.2,6-4.2Q89.07,161.45,121,161.43Z"/><path d="M100.69,222.57h42.7c3.05,0,6.51-.15,6.43,4.18-.07,3.94-3.34,3.94-6.21,3.94q-43,0-85.92,0c-3.11,0-6.61-.12-6.47-4.26S55,222.56,58,222.57Z"/><path d="M76.08,193c-1.29,2.2-2.54,4.43-3.88,6.6-1.85,3-3.72,2.86-5.44-.12a22.93,22.93,0,0,0-4.68-6.38c0,5.19,0,10.37,0,15.55,0,2.23-.07,4.36-3.11,4.42s-3.14-2.07-3.14-4.31q0-12.65,0-25.27c0-2-.11-4.05,2.33-4.7s4,.59,5.2,2.59c1.91,3.32,3.78,6.66,6.16,10.86,2.08-3.74,3.81-6.89,5.59-10C76.39,180,78,178,80.91,178.8s2.36,3.52,2.37,5.73c0,8.07,0,16.14,0,24.22,0,2.25-.09,4.35-3.15,4.33S77,210.93,77,208.7c0-5.16,0-10.33,0-15.49Z"/><path d="M141.42,197c0-4.64.05-9.27,0-13.91,0-2.32.25-4.37,3.14-4.43s3.16,2,3.15,4.32c-.06,8.43,0,16.86-.05,25.29,0,1.82.62,4.09-2.09,4.72-2.45.56-4-.71-5.1-2.75a110.59,110.59,0,0,0-9.63-15.78v13.91c0,2.33.26,4.85-3.25,4.71-3.08-.12-3-2.39-3-4.55V183.75c0-2.09-.38-4.47,2.49-5.05,2.7-.55,4.24,1.14,5.37,3.3q4,7.59,7.93,15.18Z"/><path d="M181.28,193.11c0,3.5.2,7-.05,10.51-.45,6.34-4.13,9.56-10.75,9.77-7.11.21-11.26-2.65-11.73-9.15-.52-7.33-.22-14.71-.3-22.07,0-2.41,1.18-3.66,3.52-3.52s2.7,1.71,2.68,3.71c-.06,6.31,0,12.62,0,18.93,0,3.69.93,6.76,5.52,6.6,4.31-.15,4.93-3.14,4.91-6.59,0-6,0-11.92,0-17.88,0-2.41-.07-4.86,3.26-4.76s3,2.68,3,5c0,3.16,0,6.31,0,9.47Z"/><path d="M94.19,195.84c0-4.21.12-8.42,0-12.63-.12-3.34,1.19-4.86,4.6-4.77,4.38.12,8.77.05,13.16,0,1.93,0,3.68.44,3.76,2.69s-1.71,2.76-3.62,2.77a49.18,49.18,0,0,1-6.31,0c-4.52-.61-5.65,1.33-5.51,5.61.11,3.55,1.65,4,4.52,3.93,2-.07,4.8-.5,4.62,2.69-.15,2.77-2.8,2.36-4.55,2.09-4.67-.69-4.36,2.15-4.55,5.36-.22,3.7,1.36,4.51,4.6,4.25,2.61-.22,5.26,0,7.89,0,1.93,0,3,1,2.92,2.91-.06,1.66-1.16,2.43-2.81,2.43-5.27,0-10.53,0-15.8,0-2.75,0-2.85-2.1-2.87-4.09C94.18,204.62,94.2,200.23,94.19,195.84Z"/><path d="M176.29,222.6c3.5,0,7-.07,10.49,0,2.34.07,4.11,1.16,4.27,3.71.18,2.88-1.71,4.21-4.24,4.26-7.16.14-14.33.13-21.5,0-2.54,0-4.45-1.39-4.27-4.24s2.21-3.75,4.76-3.77c3.5,0,7,0,10.49,0Z"/></g></g></svg>