<svg xmlns="http://www.w3.org/2000/svg" viewBox="0 0 274.5 149.55"><defs><style>.cls-1,.cls-2{fill:none;stroke:#000;stroke-miterlimit:10;}.cls-1{stroke-width:9px;}.cls-2{stroke-width:4px;}</style></defs><g id="Calque_2" data-name="Calque 2"><g id="Calque_1-2" data-name="Calque 1"><path class="cls-1" d="M260,27.3H103.31a10,10,0,0,0-9.26,6.28L54.93,131.36a10,10,0,0,0,9.27,13.69H220.89a10,10,0,0,0,9.27-6.27L269.28,41A10,10,0,0,0,260,27.3Z"/><rect y="34.37" width="93.42" height="3.93" rx="1.96"/><rect y="64.98" width="81.64" height="3.93" rx="1.96"/><rect y="95.6" width="69.87" height="3.93" rx="1.96"/><rect y="126.21" width="56.52" height="3.93" rx="1.96"/><path d="M160.1,119.45H122.57c-2.22,0-4.65-.06-5.28-2.66-.72-3-1.29-6.19.87-9a2.35,2.35,0,0,1,1.64-.92c3.54.45,3.4-2.1,3.84-4.36,2.9-14.9,11.72-24.62,26.08-29.22,2.27-.73,2.92-1.59,2.57-3.79-.46-2.83-.08-5.44,2.91-6.83s9.42-.62,11.13,1.13S168,68,167.6,70.22c-.31,1.74.21,2.35,1.94,2.89,15.35,4.76,24.46,15,27,31,.27,1.7.59,2.65,2.67,2.65,2.37,0,3.66,1.56,3.77,4,0,.75,0,1.51,0,2.26,0,5.48-.93,6.44-6.34,6.45Zm-.31-5H185c3.67,0,7.33,0,11,0,.89,0,2,.32,2.11-1.23.09-1.74-1.15-1.49-2.19-1.53-.75,0-1.51,0-2.26,0q-23.78,0-47.54,0a14.93,14.93,0,0,1-3.2-.27,2.09,2.09,0,0,1-1.69-2.09,2.21,2.21,0,0,1,1.72-2.42,11.11,11.11,0,0,1,2.89-.2c14.33,0,28.67-.09,43,.06,2.88,0,3.13-1,2.68-3.38C188.61,88,175.85,77,160.53,76.79a32,32,0,0,0-32,25.74c-.56,2.67-.75,4.71,3,4.16a2.35,2.35,0,0,1,2.9,2.33c.07,1.89-1.33,2.56-3,2.61-2.16.05-4.32-.11-6.46.07-1.14.1-3.19-1-3.12,1.45,0,2.22,1.95,1.23,3,1.24C136.51,114.47,148.15,114.44,159.79,114.44Zm-.23-47.36c-.65.57-2.69-.9-2.43,1.61.18,1.7.06,3.31,2.77,3.16,2.09-.12,2.71-.67,2.86-2.72C163,66.39,161.09,67.32,159.56,67.08Z"/><circle cx="148.76" cy="40.26" r="5.1"/><circle cx="209.99" cy="40.26" r="5.1"/><path class="cls-2" d="M149.15,40.65C162.5,15.53,179-4.1,197.82,3.75c11.06,4.61,12.56,18.69,12.56,36.9"/></g></g></svg>