<svg xmlns="http://www.w3.org/2000/svg" viewBox="0 0 270 230.15"><g id="Calque_2" data-name="Calque 2"><g id="Calque_1-2" data-name="Calque 1"><path d="M248.45,230.15H21.22a1,1,0,0,0-1.08-.89,7,7,0,0,1-2.62-.75A25.81,25.81,0,0,1,2.89,215.75C1.44,212.94.1,210,.08,206.82c-.09-18-.06-36-.06-54q0-39.24,0-78.48A17,17,0,0,1,1,69,27,27,0,0,1,10.1,56,26.6,26.6,0,0,1,21.65,50.7c2.73-.53,5.62-.25,8.44-.3,1.95,0,2.22-.23,2.24-2.2,0-3.08,0-6.16,0-9.23q0-12.46.06-24.92a15.73,15.73,0,0,1,1.09-6.41A12.54,12.54,0,0,1,50.83,1.45C57,4.64,63,8.25,69.09,11.72c6.63,3.8,13.21,7.68,19.85,11.46,9,5.12,18,10.18,27,15.28q8.72,4.93,17.4,9.93a2.84,2.84,0,0,0,3.15,0q17.12-9.8,34.27-19.55l28.15-16c6.29-3.59,12.6-7.14,18.84-10.81a13.1,13.1,0,0,1,9.9-1.63c5.65,1.41,9.56,5.56,9.73,12q.24,8.91.14,17.82c-.07,6-.13,12.09,0,18.13.05,1.9.24,2.06,2.17,2.07,5.05,0,10,0,14.78,2.39,7.54,3.74,12.52,9.44,14.59,17.63a1.59,1.59,0,0,0,.9,1.15V208.9c-1.29.43-.75,1.64-1.06,2.49-1.89,5.06-4.61,9.58-9,12.9-3.08,2.36-6.41,4.34-10.35,5A1.63,1.63,0,0,0,248.45,230.15ZM225.07,89.21H225q0-14.22,0-28.46,0-20.7.06-41.39c0-1.79,0-3.59-.09-5.38,0-1-.37-1.56-1.55-.86-2.85,1.69-5.76,3.27-8.64,4.91q-16.26,9.3-32.51,18.61c-8.05,4.6-16.13,9.15-24.19,13.75-6.29,3.58-12.56,7.22-18.86,10.8-2.47,1.41-5,1.89-7.69.44-6-3.23-11.74-6.78-17.68-10.05-7.72-4.24-15.31-8.71-22.95-13.1-7-4-14.05-8.11-21.09-12.12C62,21.92,54.2,17.53,46.39,13.11c-1-.58-1.57-.26-1.6,1-.07,3.17,0,6.35,0,9.52-.07,11.48.06,23,.09,34.44,0,4.72-.07,9.43-.06,14.15,0,10.76.06,21.52.06,32.28,0,10.56,0,21.11-.07,31.67,0,9.12,0,18.25,0,27.37a2.88,2.88,0,0,0,1.61,2.86c5.94,3.36,11.83,6.82,17.77,10.19,9.17,5.22,18.38,10.37,27.55,15.59,6.77,3.85,13.5,7.8,20.27,11.67,7.34,4.19,14.72,8.33,22.07,12.52a1.51,1.51,0,0,0,1.7,0c3.87-2.27,7.74-4.55,11.65-6.74,9.92-5.55,19.76-11.24,29.63-16.85,8.24-4.69,16.42-9.49,24.72-14.08,6.95-3.85,13.68-8.1,20.77-11.69,1.87-.94,2.52-2.25,2.5-4.4-.09-10.92,0-21.84,0-32.77Q225.09,109.52,225.07,89.21Zm32.35,51.17V115.14c0-11.08,0-22.16,0-33.24,0-3.4.54-6.87-.8-10.19a14,14,0,0,0-9.69-8.63c-2.55-.69-5.31-.39-8-.38-.95,0-1.49.48-1.43,1.56.07,1.33,0,2.66,0,4,0,4.66-.07,9.32-.07,14s.08,9,.08,13.52-.11,9.12-.1,13.68.12,9,.11,13.52c0,4.71-.12,9.42-.12,14.13,0,4.41.14,8.81.14,13.22q0,7.45-.18,14.9a13.11,13.11,0,0,1-.74,4.66c-1.4,3.48-4.11,5.64-7.23,7.42q-14.76,8.4-29.51,16.81c-5.28,3-10.64,5.85-15.85,9-5,3-10.19,5.78-15.28,8.69-2.69,1.54-5.38,3.12-8.06,4.68-.3.17-.75.26-.61.74s.51.49.87.55a4.69,4.69,0,0,0,.92,0c3.84-.13,7.68,0,11.53,0,7.69,0,15.37-.1,23.06-.1,7.43,0,14.86.12,22.3.11,8.3,0,16.6-.1,24.91-.14a14.67,14.67,0,0,0,4.92-.84c4.33-1.55,9.18-7.2,8.79-12.53-.09-1.22,0-2.46,0-3.69ZM12.5,140.23q0,11.39,0,22.77c0,13.49,0,27-.08,40.47A13.77,13.77,0,0,0,15.13,212a12.55,12.55,0,0,0,8.43,5.38c4,.52,8.09.27,12.14.29,4.66,0,9.32,0,14,0,4.46,0,8.91.07,13.37.06,4.67,0,9.33-.08,14-.08s9.13.09,13.69.09,9.22-.08,13.83-.1c1.44,0,2.87.08,4.31.1.42,0,.86-.1.94-.61s-.32-.57-.64-.74c-1.17-.63-2.34-1.26-3.48-1.92-6.72-3.86-13.43-7.75-20.16-11.59-6.37-3.64-12.78-7.21-19.17-10.83Q54.67,185.42,43,178.74a35.83,35.83,0,0,1-6.44-4.13,12.52,12.52,0,0,1-4.16-9.85c0-4.26,0-8.51,0-12.77q0-11.85,0-23.69c0-7.33,0-14.67,0-22q0-12.15,0-24.31c0-5.9,0-11.79-.06-17.69,0-.82-.21-1.5-1.12-1.52-4.08-.09-8.22-.51-11.9,1.86-4.16,2.68-6.8,6.3-6.86,11.42-.05,4.31,0,8.61,0,12.92Z"/><path d="M138,139.63v67.86a3.16,3.16,0,0,1-3.08,3.16,3.1,3.1,0,0,1-3-3.2V144.06q0-36.09,0-72.17c0-1.42.37-2.51,1.82-3a3.21,3.21,0,0,1,3.85,1,2.52,2.52,0,0,1,.45,1.73l0,48.17q0,9.92,0,19.84Z"/><path d="M213.92,80.79c.13,2.26-1.6,2.93-2.95,3.68-8.64,4.81-17.31,9.54-26,14.26-6.67,3.63-13.4,7.13-20,10.82q-5.13,2.86-10.35,5.59a3,3,0,0,1-4.09-1.1,3.33,3.33,0,0,1,1.29-4.27q7.29-4,14.6-8c7.1-3.89,14.16-7.86,21.31-11.65,7.33-3.9,14.45-8.19,21.9-11.87A2.88,2.88,0,0,1,213.92,80.79Z"/><path d="M150.28,82.73A2.54,2.54,0,0,1,151.93,80c7.44-4,14.81-8.17,22.24-12.22,8.63-4.72,17.28-9.38,25.92-14.07,3-1.64,6-3.33,9-5,1.95-1.06,3.55-.64,4.6,1.14a3.31,3.31,0,0,1-1.56,4.3c-4.43,2.43-8.89,4.8-13.32,7.22s-8.82,4.86-13.24,7.28c-5.41,3-10.84,5.86-16.24,8.82q-6.9,3.78-13.76,7.63c-1.76,1-3.32,1-4.5-.14A2.48,2.48,0,0,1,150.28,82.73Z"/><path d="M150.24,171.79c-.25-1.58,1-2.3,2.14-2.92q13-7.17,26-14.24,12.81-7,25.65-13.89c1.66-.9,3.25-1.93,4.94-2.74,1.26-.61,2.68-.89,3.89.16,1.8,1.58,1.45,4-.76,5.22-2.57,1.45-5.19,2.8-7.78,4.22q-10.78,5.93-21.57,11.85c-5.49,3-11,6-16.51,9L155,174.55C152.56,175.85,150.22,174.53,150.24,171.79Z"/><path d="M119.54,112.32c0,2.61-2.06,4-4.17,2.88-5.77-3-11.48-6.2-17.22-9.31-6.67-3.63-13.34-7.24-20-10.89S64.58,87.53,57.81,83.77a3.14,3.14,0,0,1-1.88-3.06,3,3,0,0,1,1.81-2.62,2.27,2.27,0,0,1,2.32,0c5,2.49,9.79,5.26,14.66,7.92,5.19,2.83,10.41,5.61,15.6,8.45q12.72,7,25.43,14c.71.39,1.42.8,2.14,1.16A2.49,2.49,0,0,1,119.54,112.32Z"/><path d="M119.56,82.57c.42,2.46-2.11,4.19-4.89,2.67-8.48-4.67-16.92-9.39-25.41-14C79.84,66.05,70.38,61,60.94,55.84c-1.08-.59-2.18-1.12-3.24-1.74a3.3,3.3,0,0,1-1.44-4.33,3.08,3.08,0,0,1,4.48-1.1c5.32,2.9,10.63,5.84,15.95,8.73C83.31,61,90,64.54,96.56,68.15c7.19,3.94,14.35,7.93,21.53,11.89C119.11,80.61,119.8,81.34,119.56,82.57Z"/><path d="M150.28,142.16c-.22-1.49.84-2.34,1.95-2.95,7.31-4,14.67-8,22-12q13.68-7.5,27.33-15c2.41-1.32,4.82-2.64,7.27-3.89a4,4,0,0,1,2.8-.5c1.15.28,2.05.83,2.23,2,.2,1.36,0,2.69-1.36,3.47-4.76,2.65-9.48,5.38-14.31,7.91-4.24,2.22-8.39,4.58-12.59,6.86q-12.94,7-25.88,14.11c-1.71.93-3.39,1.89-5.11,2.78A2.92,2.92,0,0,1,150.28,142.16Z"/><path d="M119.61,172c.42,2.47-2.53,3.8-4.81,2.55-4.42-2.42-8.83-4.86-13.25-7.27-10-5.45-20.06-10.86-30.06-16.34-4.55-2.49-9.06-5.07-13.65-7.5-2.32-1.22-2.63-3.79-.74-5.29,1.28-1,2.74-.7,4,0,3.95,2.14,7.84,4.36,11.77,6.51q10.34,5.63,20.69,11.23,11.93,6.48,23.86,13C118.67,169.5,119.87,170.29,119.61,172Z"/><path d="M119.59,142.19a3,3,0,0,1-4.45,2.71c-3.9-2.09-7.78-4.23-11.67-6.35q-14.34-7.83-28.69-15.67-8.44-4.62-16.85-9.33c-1.92-1.08-2.56-2.92-1.67-4.43s2.89-1.86,4.76-.85q8.79,4.78,17.56,9.59l17,9.32,21.87,11.94C118.82,139.85,119.82,140.79,119.59,142.19Z"/></g></g></svg>