<svg xmlns="http://www.w3.org/2000/svg" viewBox="0 0 256.13 226.6"><g id="Calque_2" data-name="Calque 2"><g id="Calque_1-2" data-name="Calque 1"><path d="M49.78,193.39c6.13-24.2,12.18-48,18.23-71.89,2.48-9.82,5.07-19.62,7.38-29.48.65-2.78,1.75-3.67,4.64-3.6a133.84,133.84,0,0,1,21.34,1.83,13.64,13.64,0,0,1,9.48,6.47c9.89,15,20.1,29.74,30.6,45.18,6.35-8.28,13-15.86,18.36-24.27,4.82-7.55,10.44-10.44,19.53-9.87,14.27.9,28.65.22,43,.27,1.39,0,3.31-.71,4,1.07.61,1.6-.83,2.73-1.91,3.77-4.72,4.55-10.82,6.91-16.83,8.22-14.25,3.11-24.2,10.95-31.77,23.29-6.32,10.3-14.07,19.74-21.33,29.47-6.93,9.29-18.32,9.5-25.83.5-7.66-9.17-15.17-18.47-22.91-27.91-1.84,1.76-1.1,3.85-1.11,5.65-.06,23.16-.12,46.32,0,69.48,0,3.83-.89,5.05-4.92,5q-47.49-.27-95,0c-3.6,0-4.78-.71-4.77-4.59Q.22,158,0,94c0-3.31.7-4.7,4.15-4.9,5.65-.32,12.22-2.56,16.68-.05s3.63,9.78,5,15c7.37,28.32,14.46,56.71,21.71,85.06C47.87,190.44,47.63,192.15,49.78,193.39Z"/><path d="M192.44,39.16C186.1,33,185.37,26.89,190,22.31a10.21,10.21,0,0,1,14.37.22c4.44,4.68,3.44,11-3,16.69,9,1.42,17.24,3.85,24.43,9.18,9.13,6.76,15.56,15.38,18.63,26.35.71,2.51,1.43,3.89,4.54,3.86,6.11,0,7.09,1.25,7.12,7.4.07,13.3,1,12.52-12.32,12.5q-49.21-.06-98.43,0c-6.59,0-7.67-1.11-7.75-7.89,0-1.83,0-3.66,0-5.49.09-4.41,2.09-7,6.76-6.57,3.31.33,4.45-1,5.35-4.14C154.6,57.58,169.07,42.36,192.44,39.16Z"/><path d="M49.59,0a39.5,39.5,0,1,1-40,39.68C9.39,17.72,27.25,0,49.59,0Z"/></g></g></svg>