<svg xmlns="http://www.w3.org/2000/svg" viewBox="0 0 270 270"><defs><style>.cls-1{fill:#fff;}</style></defs><g id="Calque_2" data-name="Calque 2"><g id="Calque_1-2" data-name="Calque 1"><path class="cls-1" d="M157,270c-11.8-.26-24-5.83-36.5-10.38C91,248.86,62.27,236.32,33.41,224.07c-23-9.74-35-31-33.25-56.69a113.8,113.8,0,0,1,1.72-13c1.29-6.89,4-8.52,10.69-5.88,10.59,4.2,21.2,8.34,31.66,12.83,3.38,1.45,4.83,1,6.07-2.52Q73.75,91.37,97.41,24q3.12-8.92,6.3-17.83c2.07-5.84,4.08-7,10.4-5.71q33.55,6.63,67.1,13.3,41,8.19,82,16.45c6.67,1.35,8,3.86,5.8,10.38q-28.18,84.15-58.42,167.59c-5.46,15.15-11.46,30.16-20.29,43.82a46.36,46.36,0,0,1-17.54,16.24C168.51,270.48,163.54,269.67,157,270Zm-24.7-60.93c-.13,13,1.89,25.37,9.85,36.25,11.54,15.78,28.17,15.79,38.85-.12,8.09-12,13.2-25.52,18.12-39,19.55-53.44,38-107.27,56.55-161.06,1.36-3.94.41-5-3.46-5.7-15.87-2.95-31.69-6.23-47.52-9.39l-86.2-17.2c-2.61-.52-4.66-1.08-6,2.71Q86.87,89.26,60.75,162.74c-1.54,4.33.18,5.38,3.5,6.7q29.81,11.88,59.52,24c8.74,3.53,8.72,3.57,8.51,13C132.26,207.32,132.28,208.19,132.28,209.07Zm-1.43,42.26a94.56,94.56,0,0,1-8-21.45,89.58,89.58,0,0,1-2.15-22.44c.08-2.62-1.31-3.57-3.51-4.45Q66.72,182.74,16.33,162.28c-3.12-1.28-4.33-1-4.69,2.49-2.1,20.87,5.38,40,27,49q33.44,14,67,27.84C113.9,245.08,122.41,248.12,130.85,251.33Z"/><path class="cls-1" d="M187.3,136a11.15,11.15,0,0,1-4.31-1c-13.14-4.37-26.29-8.67-39.42-13.06a11.59,11.59,0,0,1-4.68-2.3,5.49,5.49,0,0,1-1.53-6.23,4.66,4.66,0,0,1,4.94-3.21,18.1,18.1,0,0,1,4.65.7q20.73,6.79,41.41,13.75c3.32,1.11,5.53,3.18,4.89,7C192.74,134.8,190.59,136,187.3,136Z"/><path class="cls-1" d="M169.82,178.21c-.76-.19-1.8-.37-2.78-.7q-21-7-41.91-14c-2-.67-3.93-1.44-4.89-3.59-1.72-3.83.68-7.73,4.88-7.57a21,21,0,0,1,5.61,1.22c13.49,4.42,27,8.92,40.44,13.36,3.42,1.13,5.55,3.27,4.8,7C175.38,177,173,178.1,169.82,178.21Z"/><path class="cls-1" d="M162.33,67.5c6.26,1.66,13.69,3.63,21.12,5.63s14.87,4.06,22.3,6.08c3.69,1,6.92,2.77,5.89,7.16-1.1,4.69-4.89,4.93-8.84,3.87-14-3.77-28.07-7.54-42.08-11.41-3.34-.92-5.67-3-5.13-6.85C156,68.9,158,67.47,162.33,67.5Z"/><path class="cls-1" d="M130,57.56c3,.72,5.64,2.41,5.44,6.53-.19,3.7-2.53,5.34-6,5-3.62-.31-6.61-2.07-6.46-6.15C123.11,59.25,125.68,57.54,130,57.56Z"/><path class="cls-1" d="M90.09,146.27c.15-4,2.49-5.58,6.15-5.47,3.93.11,6.3,2.35,6.29,6.19,0,3.13-2,5.15-5.33,5.29C93.15,152.45,90.05,149.76,90.09,146.27Z"/><path class="cls-1" d="M115,112.24c-5.09.12-8.58-2.66-8.34-6s2.53-5.36,5.93-5.38c3.74,0,6.47,1.63,6.69,5.77C119.47,110.28,117.21,111.84,115,112.24Z"/></g></g></svg>