<svg xmlns="http://www.w3.org/2000/svg" viewBox="0 0 270 168.9"><g id="Calque_2" data-name="Calque 2"><g id="Calque_1-2" data-name="Calque 1"><path d="M231.31,101.63q0,27.18,0,54.35c0,7.94-1.21,8.89-8.92,8-27.7-3.27-55.44-3.22-83.21-.91-31.53,2.61-63,6.6-94.73,5.73q-19.25-.54-38.39-2.84C1.69,165.41,0,163.39,0,159.07.07,121.78,0,84.48.06,47.19c0-5.39,1.77-7,7.11-6.33C45,45.41,82.64,43.3,120.34,39.43c34.7-3.57,69.45-4.91,104.23-.52,5.14.65,6.86,2.83,6.81,7.83C231.2,65,231.31,83.33,231.31,101.63ZM9.6,103.88c0,15.82.13,31.64-.09,47.46-.06,4.19,1,5.55,5.42,6,36.79,4,73.37.84,110-2.71,30.5-3,61-4.28,91.56-.79,4.08.47,5.38-.4,5.35-4.76-.19-31.12-.1-62.24-.1-93.35,0-7.63,0-7.48-7.49-8.23-35-3.5-69.86-.88-104.69,2.6-31.89,3.19-63.82,4.47-95.77,1-3.39-.37-4.23.43-4.2,3.73C9.67,71.18,9.6,87.53,9.6,103.88Z"/><path d="M270,66.05q0,26.91,0,53.8a20.37,20.37,0,0,1-.5,5.19c-.64,2.36-2.57,3.3-4.9,3a4.06,4.06,0,0,1-4-3.6,40.19,40.19,0,0,1-.24-5.26c0-33.76-.11-67.51.1-101.27,0-4.81-1.44-6-6.11-6.54-36.45-3.87-72.69-.81-108.92,2.75-32.62,3.2-65.24,4.18-97.88.33-3.69-.43-9.33.28-8.6-5.85S44.73,4.55,48.62,5c31.41,3.6,62.82,2.86,94.21-.25C181,1,219.16-2.29,257.51,2.13c.35,0,.7,0,1.05.06C269.94,3.23,270,3.3,270,14.89Z"/><path d="M250.71,84.65q0,26.64,0,53.27a43.91,43.91,0,0,1-.25,5.26,4.65,4.65,0,0,1-9.17.4,29,29,0,0,1-.38-5.75c0-33.76-.09-67.51.07-101.27,0-4.23-1.12-5.6-5.45-6.05-36.26-3.75-72.33-.92-108.39,2.67-33.32,3.32-66.64,4.24-100,.34-1-.12-2.08-.37-3.12-.51-3.11-.43-5-2.23-4.54-5.32.45-3.37,3-4.51,6.2-4.18,6.64.67,13.28,1.4,19.93,1.95,30.46,2.54,60.76.15,91-2.84,35.76-3.53,71.5-5.32,107.32-.74,5.27.67,6.8,3.1,6.77,7.92C250.64,48.08,250.7,66.37,250.71,84.65Z"/><path d="M126.89,87c.14,2.89-1.1,4.93-3.93,5.43a4.37,4.37,0,0,1-5.41-3.79c-.54-3.35-2.07-5.13-5.42-5.22-2.68-.06-5.5-.08-6.6,3.06-1.2,3.41,1.34,4.67,3.76,5.91C112.88,94.24,116.5,96,120,98c4.94,2.7,7.28,6.86,7,12.57a12.45,12.45,0,0,1-7.85,11.51c-2.47,1.08-3.54,2.31-3.5,5,0,2.94-1.43,5.19-4.71,5.21-3.58,0-5-2.45-4.88-5.58.15-2.84-1.2-3.95-3.47-5.07a12.33,12.33,0,0,1-7-9.93c-.39-2.87.09-5.44,3.26-6.3,3.34-.91,5.47.66,6.1,4,.53,2.8,2,4.44,4.89,4.57s6,.46,7.21-2.88c1.34-3.69-1.74-4.85-4.23-6.16-3.57-1.88-7.31-3.5-10.71-5.64-9.14-5.75-9-18,.29-23.31,2.36-1.35,3.82-2.48,3.67-5.52s1.4-5.13,4.72-5.16,4.93,2.11,4.8,5.06c-.15,3.13,1.49,4.18,3.91,5.31C124.26,77.9,126.55,81.88,126.89,87Z"/><path d="M191.82,65.17c-3.69,0-8.24.08-12.79,0-3.31-.07-6-1.28-5.86-5.16.16-3.6,2.82-4.58,5.91-4.47,9.1.31,18.19.71,27.28,1.11,3.41.15,6,1.57,5.58,5.37s-3.35,4.52-6.68,4.23C201.07,65.87,196.88,65.56,191.82,65.17Z"/><path d="M38.64,140c4.74,0,9.48,0,14.22,0,3,0,5.24,1.19,5.34,4.53.1,3.59-2.22,5.08-5.43,5-9.31-.24-18.61-.62-27.92-1.06-3.17-.16-5.59-1.77-5.38-5.21s2.76-4.54,6-4.35c4.39.26,8.78.43,13.17.63Z"/></g></g></svg>