<svg xmlns="http://www.w3.org/2000/svg" viewBox="0 0 255.82 224.85"><g id="Calque_2" data-name="Calque 2"><g id="Calque_1-2" data-name="Calque 1"><path d="M127.9,224.82H27.46c-5.37,0-10.64-.52-15.64-2.67C2.89,218.32-1.43,210.21.42,200.71A41.07,41.07,0,0,1,5.58,187.8Q56,101.86,106.31,15.93c12.49-21.29,30.87-21.24,43.41.13Q200,101.74,250.17,187.51A41.88,41.88,0,0,1,255,198.42c3.2,12.69-2.88,22.6-15.71,25.37a51.78,51.78,0,0,1-10.92,1.06Q178.13,224.78,127.9,224.82ZM128,204h80.49c2.67,0,5.35.16,8-.08,9.69-.86,13.62-7.89,9.38-16.63-.72-1.49-1.62-2.9-2.46-4.34L186.27,119.6Q162.67,79.31,139.05,39C132.5,27.89,123.61,28,116.88,39c-.43.71-.82,1.44-1.24,2.16q-32.2,54.95-64.4,109.88c-7,11.92-14.15,23.74-20.85,35.83-5,9-.58,16.39,9.61,17.08,1.49.11,3,0,4.5,0Z"/><path d="M111.18,105.93c0-7-.05-14,0-21,.12-11.65,7.38-20.67,16.64-20.78,9.42-.11,17,9.08,16.9,21-.12,14.5-.54,29-.91,43.47a23.68,23.68,0,0,1-3,11c-2.81,5.08-6.73,8.88-12.92,8.82s-10.05-3.89-12.79-9a25.08,25.08,0,0,1-3-12q0-10.74,0-21.49Z"/><path d="M127.85,157.79a15.29,15.29,0,0,1,15.56,15,15.43,15.43,0,1,1-30.86.26A15.3,15.3,0,0,1,127.85,157.79Z"/></g></g></svg>