<svg xmlns="http://www.w3.org/2000/svg" viewBox="0 0 270 270"><g id="Calque_2" data-name="Calque 2"><g id="Calque_1-2" data-name="Calque 1"><path d="M229.87,195.78q0,30.47,0,60.93c0,9.91-3.31,13.27-12.92,13.28H176.08c-9.92,0-13.41-3.47-13.41-13.4q0-30.72,0-61.43c0-9.86-3.33-13.33-12.87-13.36-10.34,0-20.68-.07-31,0-7.69.07-11.48,4-11.49,11.72,0,21.14,0,42.28,0,63.42,0,9.4-3.58,13-12.78,13q-21.18,0-42.35,0c-8.39,0-12-3.58-12.05-12.13,0-41.28,0-82.57-.07-123.85a13.57,13.57,0,0,1,5.26-11.18q40.8-34.56,81.46-69.32c5.63-4.79,10.75-4.85,16.36-.09q41.11,35,82.21,70c3.49,3,4.63,6.54,4.61,11C229.83,154.83,229.87,175.31,229.87,195.78Z"/><path d="M135,.34a26,26,0,0,1,16.82,6.35q56.57,48.18,113.09,96.4c5.75,4.9,6.72,11.6,2.64,16.65-4.31,5.33-10.92,5.55-17,.4Q197.73,75.22,145,30.22c-8.16-6.95-11.86-6.94-20.14.12Q72.23,75.18,19.63,120c-5,4.29-9.43,5.1-13.95,2.47C1.4,120-.45,116.11.09,111.13a11.4,11.4,0,0,1,4.35-7.56Q61.58,54.91,118.71,6.26A25.17,25.17,0,0,1,135,.34Z"/><path d="M227.65,52.29,198.43,27.36a3.51,3.51,0,0,1-.69-.7c-1.48-2.28-.63-20.73,1-22.93,3.8-5,23.74-5,27.36.15a7,7,0,0,1,1.45,3.62C227.68,22.07,227.65,36.64,227.65,52.29Z"/></g></g></svg>